<svg id="Capa_1" enable-background="new 0 0 512 512" height="512" viewBox="0 0 512 512" width="512" xmlns="http://www.w3.org/2000/svg"><path d="m503.756 400h-383.18c-4.238 0-8.251-1.899-10.934-5.173l-106.45-129.901c-4.255-5.193-4.255-12.66 0-17.853l106.45-129.901c2.683-3.274 6.697-5.173 10.934-5.173h383.18c4.553 0 8.244 3.684 8.244 8.229v271.543c0 4.545-3.691 8.229-8.244 8.229z" fill="#ffca28"/><path d="m503.756 112h-30.905c4.553 0 8.244 3.684 8.244 8.229v271.543c0 4.544-3.691 8.229-8.244 8.229h30.905c4.553 0 8.244-3.684 8.244-8.229v-271.543c0-4.545-3.691-8.229-8.244-8.229z" fill="#ffb300"/><circle cx="78.17" cy="255.23" fill="#8c9eff" r="23.5"/><path d="m200.553 183.585c-29.484 29.484-29.484 77.29 0 106.774s77.29 29.484 106.774 0 29.484-77.29 0-106.774-77.29-29.485-106.774 0zm31.97 31.969c11.829-11.829 31.005-11.829 42.834 0s11.829 31.005 0 42.834-31.005 11.829-42.834 0c-11.829-11.828-11.829-31.005 0-42.834z" fill="#bdf9ff"/><path d="m275.357 215.554 31.97-31.97c-29.484-29.484-77.29-29.484-106.774 0l31.97 31.97c11.829-11.829 31.005-11.829 42.834 0z" fill="#ff3d7a"/><path d="m232.523 215.554-31.97-31.97c-29.484 29.484-29.484 77.29 0 106.774l31.97-31.97c-11.829-11.829-11.829-31.005 0-42.834z" fill="#8c9eff"/><g fill="#ff3d7a"><path d="m381.682 180.186h70.053c4.143 0 7.5-3.358 7.5-7.5s-3.357-7.5-7.5-7.5h-70.053c-4.143 0-7.5 3.358-7.5 7.5s3.357 7.5 7.5 7.5z"/><path d="m451.734 198.101h-70.053c-4.143 0-7.5 3.358-7.5 7.5s3.357 7.5 7.5 7.5h70.053c4.143 0 7.5-3.358 7.5-7.5s-3.357-7.5-7.5-7.5z"/><path d="m451.734 347.715h-273.512c-4.143 0-7.5 3.358-7.5 7.5s3.357 7.5 7.5 7.5h273.513c4.143 0 7.5-3.358 7.5-7.5s-3.358-7.5-7.501-7.5z"/></g></svg>