<svg height="512" viewBox="0 0 256 256" width="512" xmlns="http://www.w3.org/2000/svg"><rect fill="#9e9e9e" height="41.313" rx="4.919" width="121.156" x="67.422" y="101.857"/><rect fill="#9e9e9e" height="41.313" rx="4.919" width="121.156" x="67.422" y="143.17"/><rect fill="#9e9e9e" height="41.313" rx="4.919" width="121.156" x="67.422" y="60.545"/><path d="m76.922 96.939v-31.476a4.919 4.919 0 0 1 4.919-4.918h-9.5a4.919 4.919 0 0 0 -4.919 4.918v31.476a4.919 4.919 0 0 0 4.919 4.918h9.5a4.919 4.919 0 0 1 -4.919-4.918z" fill="#707070"/><path d="m179.078 96.939v-31.476a4.919 4.919 0 0 0 -4.919-4.918h9.5a4.919 4.919 0 0 1 4.919 4.918v31.476a4.919 4.919 0 0 1 -4.919 4.918h-9.5a4.919 4.919 0 0 0 4.919-4.918z" fill="#cecece"/><path d="m179.078 138.251v-31.475a4.919 4.919 0 0 0 -4.919-4.918h9.5a4.919 4.919 0 0 1 4.919 4.918v31.476a4.919 4.919 0 0 1 -4.919 4.918h-9.5a4.919 4.919 0 0 0 4.919-4.919z" fill="#cecece"/><path d="m179.078 179.564v-31.476a4.919 4.919 0 0 0 -4.919-4.918h9.5a4.919 4.919 0 0 1 4.919 4.918v31.476a4.919 4.919 0 0 1 -4.919 4.918h-9.5a4.919 4.919 0 0 0 4.919-4.918z" fill="#cecece"/><path d="m76.922 138.251v-31.475a4.919 4.919 0 0 1 4.919-4.918h-9.5a4.919 4.919 0 0 0 -4.919 4.918v31.476a4.919 4.919 0 0 0 4.919 4.918h9.5a4.919 4.919 0 0 1 -4.919-4.919z" fill="#707070"/><path d="m76.922 179.564v-31.476a4.919 4.919 0 0 1 4.919-4.918h-9.5a4.919 4.919 0 0 0 -4.919 4.918v31.476a4.919 4.919 0 0 0 4.919 4.918h9.5a4.919 4.919 0 0 1 -4.919-4.918z" fill="#707070"/><rect fill="#f8af23" height="8.897" rx="2.265" width="64.258" x="79.948" y="76.752"/><rect fill="#f8af23" height="8.897" rx="2.265" width="64.258" x="79.948" y="118.065"/><rect fill="#f8af23" height="8.897" rx="2.265" width="64.258" x="79.948" y="159.378"/><rect fill="#f8af23" height="8.897" rx="2.265" width="8.897" x="163.154" y="76.752"/><rect fill="#f8af23" height="8.897" rx="2.265" width="8.897" x="163.154" y="118.065"/><rect fill="#f8af23" height="8.897" rx="2.265" width="8.897" x="163.154" y="159.378"/><path d="m26.392 17.893h21.67v8.733h18.867v24.258h-40.537z" fill="#63bce7"/><path d="m26.392 17.893h9.5v32.991h-9.5z" fill="#6377e7"/><path d="m189.071 17.893h21.67v8.733h18.867v24.258h-40.537z" fill="#f8af23"/><path d="m220.108 26.626h9.5v24.258h-9.5z" fill="#f8d323"/><path d="m26.392 194.143h21.67v8.733h18.867v24.258h-40.537z" fill="#f46275"/><path d="m189.071 194.143h21.67v8.733h18.867v24.258h-40.537z" fill="#9e9e9e"/><path d="m220.108 202.876h9.5v24.258h-9.5z" fill="#cecece"/><path d="m26.392 194.143h9.5v32.991h-9.5z" fill="#f43075"/><g fill="#3f3679"><path d="m78.448 79.018v4.366a3.77 3.77 0 0 0 3.766 3.766h59.726a3.77 3.77 0 0 0 3.766-3.766v-4.366a3.77 3.77 0 0 0 -3.766-3.766h-59.726a3.77 3.77 0 0 0 -3.766 3.766zm64.258 0v4.366a.776.776 0 0 1 -.766.766h-59.726a.776.776 0 0 1 -.766-.766v-4.366a.776.776 0 0 1 .766-.766h59.726a.776.776 0 0 1 .766.766z"/><path d="m82.214 128.462h59.726a3.77 3.77 0 0 0 3.766-3.766v-4.366a3.77 3.77 0 0 0 -3.766-3.766h-59.726a3.77 3.77 0 0 0 -3.766 3.766v4.37a3.77 3.77 0 0 0 3.766 3.762zm-.766-8.132a.776.776 0 0 1 .766-.766h59.726a.776.776 0 0 1 .766.766v4.37a.776.776 0 0 1 -.766.766h-59.726a.776.776 0 0 1 -.766-.766z"/><path d="m82.214 169.775h59.726a3.77 3.77 0 0 0 3.766-3.766v-4.366a3.77 3.77 0 0 0 -3.766-3.766h-59.726a3.77 3.77 0 0 0 -3.766 3.766v4.366a3.77 3.77 0 0 0 3.766 3.766zm-.766-8.132a.776.776 0 0 1 .766-.766h59.726a.776.776 0 0 1 .766.766v4.366a.776.776 0 0 1 -.766.766h-59.726a.776.776 0 0 1 -.766-.766z"/><path d="m165.419 87.15h4.366a3.77 3.77 0 0 0 3.766-3.766v-4.366a3.77 3.77 0 0 0 -3.766-3.766h-4.366a3.77 3.77 0 0 0 -3.766 3.766v4.366a3.77 3.77 0 0 0 3.766 3.766zm-.766-8.132a.776.776 0 0 1 .766-.766h4.366a.776.776 0 0 1 .766.766v4.366a.776.776 0 0 1 -.766.766h-4.366a.776.776 0 0 1 -.766-.766z"/><path d="m165.419 128.462h4.366a3.77 3.77 0 0 0 3.766-3.766v-4.366a3.77 3.77 0 0 0 -3.766-3.766h-4.366a3.77 3.77 0 0 0 -3.766 3.766v4.37a3.77 3.77 0 0 0 3.766 3.762zm-.766-8.132a.776.776 0 0 1 .766-.766h4.366a.776.776 0 0 1 .766.766v4.37a.776.776 0 0 1 -.766.766h-4.366a.776.776 0 0 1 -.766-.766z"/><path d="m165.419 169.775h4.366a3.77 3.77 0 0 0 3.766-3.766v-4.366a3.77 3.77 0 0 0 -3.766-3.766h-4.366a3.77 3.77 0 0 0 -3.766 3.766v4.366a3.77 3.77 0 0 0 3.766 3.766zm-.766-8.132a.776.776 0 0 1 .766-.766h4.366a.776.776 0 0 1 .766.766v4.366a.776.776 0 0 1 -.766.766h-4.366a.776.776 0 0 1 -.766-.766z"/><path d="m26.392 52.384h40.538a1.5 1.5 0 0 0 1.5-1.5v-24.258a1.5 1.5 0 0 0 -1.5-1.5h-17.367v-7.233a1.5 1.5 0 0 0 -1.5-1.5h-21.671a1.5 1.5 0 0 0 -1.5 1.5v32.991a1.5 1.5 0 0 0 1.5 1.5zm1.5-32.991h18.671v5.733h-6.27a1.5 1.5 0 0 0 0 3h25.137v21.258h-37.538z"/><path d="m189.07 52.384h40.538a1.5 1.5 0 0 0 1.5-1.5v-24.258a1.5 1.5 0 0 0 -1.5-1.5h-17.367v-7.233a1.5 1.5 0 0 0 -1.5-1.5h-21.671a1.5 1.5 0 0 0 -1.5 1.5v32.991a1.5 1.5 0 0 0 1.5 1.5zm1.5-32.991h18.671v5.733h-6.27a1.5 1.5 0 0 0 0 3h25.137v21.258h-37.538z"/><path d="m126.5 59.044h-54.159a6.427 6.427 0 0 0 -6.419 6.419v31.476a6.4 6.4 0 0 0 2.3 4.918 6.407 6.407 0 0 0 -2.3 4.919v14.238h-24.031v-37.235l2.853 2.853a1.5 1.5 0 0 0 2.121-2.121l-5.414-5.411a1.544 1.544 0 0 0 -2.121 0l-5.412 5.41a1.5 1.5 0 1 0 2.121 2.121l2.852-2.852v77.469l-2.852-2.848a1.5 1.5 0 1 0 -2.121 2.121l5.412 5.412a1.5 1.5 0 0 0 2.121 0l5.413-5.412a1.5 1.5 0 1 0 -2.121-2.121l-2.853 2.852v-37.238h24.032v14.237a6.407 6.407 0 0 0 2.3 4.919 6.4 6.4 0 0 0 -2.3 4.918v31.476a6.427 6.427 0 0 0 6.419 6.419h54.159v24.031h-37.235l2.853-2.853a1.5 1.5 0 0 0 -2.118-2.121l-5.413 5.413a1.5 1.5 0 0 0 0 2.121l5.413 5.413a1.5 1.5 0 0 0 2.121-2.121l-2.852-2.852h77.47l-2.852 2.852a1.5 1.5 0 1 0 2.113 2.121l5.413-5.412a1.5 1.5 0 0 0 0-2.121l-5.413-5.414a1.5 1.5 0 0 0 -2.121 2.121l2.853 2.853h-37.232v-24.031h54.159a6.427 6.427 0 0 0 6.419-6.419v-31.476a6.4 6.4 0 0 0 -2.3-4.918 6.407 6.407 0 0 0 2.3-4.919v-14.237h24.031v37.235l-2.853-2.852a1.5 1.5 0 0 0 -2.121 2.121l5.413 5.412a1.5 1.5 0 0 0 2.121 0l5.412-5.412a1.5 1.5 0 1 0 -2.121-2.121l-2.852 2.852v-77.47l2.852 2.852a1.5 1.5 0 0 0 2.121-2.121l-5.411-5.41a1.5 1.5 0 0 0 -2.121 0l-5.413 5.413a1.5 1.5 0 0 0 2.121 2.121l2.853-2.853v37.235h-24.032v-14.24a6.407 6.407 0 0 0 -2.3-4.919 6.4 6.4 0 0 0 2.3-4.918v-31.476a6.427 6.427 0 0 0 -6.419-6.419h-54.159v-24.03h37.235l-2.852 2.852a1.5 1.5 0 1 0 2.117 2.121l5.413-5.412a1.5 1.5 0 0 0 0-2.121l-5.413-5.414a1.5 1.5 0 1 0 -2.121 2.121l2.853 2.853h-77.467l2.853-2.853a1.5 1.5 0 0 0 -2.118-2.121l-5.413 5.413a1.5 1.5 0 0 0 0 2.121l5.413 5.413a1.5 1.5 0 0 0 2.121-2.121l-2.852-2.852h37.231zm60.578 89.044v31.476a3.423 3.423 0 0 1 -3.419 3.419h-111.318a3.423 3.423 0 0 1 -3.419-3.419v-31.476a3.423 3.423 0 0 1 3.419-3.418h111.318a3.423 3.423 0 0 1 3.419 3.418zm0-41.312v31.476a3.423 3.423 0 0 1 -3.419 3.419h-111.318a3.423 3.423 0 0 1 -3.419-3.419v-31.476a3.423 3.423 0 0 1 3.419-3.419h111.318a3.423 3.423 0 0 1 3.419 3.419zm0-41.313v31.476a3.423 3.423 0 0 1 -3.419 3.418h-111.318a3.423 3.423 0 0 1 -3.419-3.418v-31.476a3.423 3.423 0 0 1 3.419-3.419h111.318a3.423 3.423 0 0 1 3.419 3.419z"/><path d="m27.323 236.607h-18a1.5 1.5 0 0 0 0 3h18a1.5 1.5 0 1 0 0-3z"/><path d="m246.68 236.607h-18a1.5 1.5 0 0 0 0 3h18a1.5 1.5 0 0 0 0-3z"/><path d="m218.479 236.607h-180.958a1.5 1.5 0 0 0 0 3h180.958a1.5 1.5 0 0 0 0-3z"/><path d="m9.32 228.634h237.36a1.5 1.5 0 0 0 0-3h-15.572v-22.758a1.5 1.5 0 0 0 -1.5-1.5h-17.367v-7.233a1.5 1.5 0 0 0 -1.5-1.5h-21.671a1.5 1.5 0 0 0 -1.5 1.5v31.491h-119.14v-22.758a1.5 1.5 0 0 0 -1.5-1.5h-17.367v-7.233a1.5 1.5 0 0 0 -1.5-1.5h-21.671a1.5 1.5 0 0 0 -1.5 1.5v31.491h-15.572a1.5 1.5 0 0 0 0 3zm181.25-32.991h18.671v5.733h-6.27a1.5 1.5 0 0 0 0 3h25.137v21.258h-37.538zm-162.679 0h18.672v5.733h-6.27a1.5 1.5 0 0 0 0 3h25.137v21.258h-37.538z"/></g></svg>