<svg height="512" viewBox="0 0 512 512" width="512" xmlns="http://www.w3.org/2000/svg"><g><g><path d="m16 136h480v240h-480z" fill="#bdfdff"/><path d="m200 360a71.818 71.818 0 0 1 -24.59 54.18l-47.41-54.18 43.2-57.6a71.875 71.875 0 0 1 28.8 57.6z" fill="#ffda44"/><path d="m171.2 302.4-43.2 57.6h-72a72 72 0 0 1 115.2-57.6z" fill="#ffdaaa"/><path d="m175.41 414.18q-2.04 1.8-4.21 3.42a72 72 0 0 1 -115.2-57.6h72z" fill="#cca400"/><path d="m175.41 414.18q-2.04 1.8-4.21 3.42z" fill="#e0e0e2"/><path d="m176 296-4.8 6.4" fill="none"/><g fill="#e0e0e2"><circle cx="296.393" cy="272.136" r="16"/><circle cx="329.067" cy="187.73" r="16"/><path d="m304.562 251.035 16.336-42.203"/></g><circle cx="461.227" cy="128.315" fill="#cca400" r="35.315"/><path d="m443.058 164.416-16.336 42.204" fill="#e0e0e2"/><circle cx="413.473" cy="220.403" fill="#e0e0e2" r="16"/><path d="m392.372 212.235-42.204-16.337" fill="#e0e0e2"/><path d="m48 184h32v72h-32z" fill="#ff9811"/><path d="m216 184h32v72h-32z" fill="#ff9811"/><path d="m160 168h32v88h-32z" fill="#e0e0e2"/><path d="m104 224h32v32h-32z" fill="#91cc04"/><path d="m224 328h96v24h-96z" fill="#cca400"/></g><g><path d="m500.85 110.81a43.306 43.306 0 0 0 -82.92 17.19h-401.93a8 8 0 0 0 -8 8v240a8 8 0 0 0 8 8h35.68a80.007 80.007 0 0 0 152.64 0h291.68a8 8 0 0 0 8-8v-232.46a7.933 7.933 0 0 0 -1-3.87 43.109 43.109 0 0 0 -2.15-28.86zm-372.85 313.19a64.073 64.073 0 0 1 -63.48-56h59.73l37.6 45.12a7.878 7.878 0 0 0 .69.72 63.636 63.636 0 0 1 -34.54 10.16zm-63.48-72a63.96 63.96 0 0 1 93.87-48.31l-34.51 48.31zm110.2 51.67a7.175 7.175 0 0 0 -.57-.79l-36.05-43.26 33.29-46.61a63.848 63.848 0 0 1 3.33 90.66zm313.28-35.67h-280.4c.26-2.63.4-5.3.4-8a80 80 0 0 0 -160 0c0 2.7.14 5.37.4 8h-24.4v-224h396.86c.23.61.48 1.22.75 1.82a43.036 43.036 0 0 0 13.47 17.04l-13.53 34.96a23.91 23.91 0 0 0 -26.28 6.96.01.01 0 0 1 -.01-.01l-42.19-16.33a24.042 24.042 0 0 0 -15.34-23.09 23.994 23.994 0 0 0 -24.29 40.59l-16.33 42.2a24.151 24.151 0 1 0 14.9 5.8c.01-.01.01-.01.01-.02l16.34-42.2v-.02c.25.01.49.03.74.03a23.9 23.9 0 0 0 18.16-8.38c.01 0 .01.01.02.01l42.19 16.33a24.008 24.008 0 1 0 45.96-8.99c-.3-.66-.62-1.3-.97-1.92l15.01-38.77a43.007 43.007 0 0 0 29.26-2.08 42.777 42.777 0 0 0 9.27-5.56zm-71.29-140.28a8 8 0 1 1 -6.47-14.63 7.845 7.845 0 0 1 3.22-.69 8 8 0 0 1 3.25 15.32zm-80.18-37.1a8 8 0 1 1 -10.7-10.21 8.107 8.107 0 0 1 3.23-.68 8 8 0 0 1 2.89.54 8.014 8.014 0 0 1 4.58 10.35zm-36.9 88.83a8 8 0 1 1 -3.24-15.32 7.846 7.846 0 0 1 2.89.55 7.994 7.994 0 0 1 .35 14.77zm172.64-126.15a27.321 27.321 0 1 1 13.94-36.02 27.149 27.149 0 0 1 -13.94 36.02z"/><path d="m472 296h-80a8 8 0 0 0 0 16h80a8 8 0 0 0 0-16z"/><path d="m472 320h-56a8 8 0 0 0 0 16h56a8 8 0 0 0 0-16z"/><path d="m472 344h-16a8 8 0 0 0 0 16h16a8 8 0 0 0 0-16z"/><path d="m432 344h-8a8 8 0 0 0 0 16h8a8 8 0 0 0 0-16z"/><path d="m256 248.07v-64.07a8 8 0 0 0 -8-8h-32a8 8 0 0 0 -8 8v64h-8v-80a8 8 0 0 0 -8-8h-32a8 8 0 0 0 -8 8v80h-8v-24a8 8 0 0 0 -8-8h-32a8 8 0 0 0 -8 8v24h-8v-64a8 8 0 0 0 -8-8h-32a8 8 0 0 0 -8 8v64a8 8 0 0 0 0 16h215a8 8 0 0 0 1-15.93zm-184-.07h-16v-56h16zm56 0h-16v-16h16zm56 0h-16v-72h16zm56 0h-16v-56h16z"/><path d="m320 320h-96a8 8 0 0 0 -8 8v24a8 8 0 0 0 8 8h96a8 8 0 0 0 8-8v-24a8 8 0 0 0 -8-8zm-8 24h-80v-8h80z"/></g></g></svg>