<svg height="512" viewBox="0 0 256 256" width="512" xmlns="http://www.w3.org/2000/svg"><path d="m32.9 214.821a12.5 12.5 0 0 1 -12.5-12.5v-36.15a12.5 12.5 0 0 1 25 0v36.15a12.5 12.5 0 0 1 -12.5 12.5z" fill="#f8af23"/><path d="m167.815 159.355h-34.5a12.5 12.5 0 0 1 0-25h26.82l15.529-30.649a12.5 12.5 0 0 1 11.15-6.851h15.25a12.5 12.5 0 1 1 0 25h-7.57l-15.529 30.645a12.5 12.5 0 0 1 -11.15 6.855z" fill="#f8af23"/><path d="m202.065 96.855h-9.5a12.5 12.5 0 1 1 0 25h-7.57l-15.53 30.645a12.5 12.5 0 0 1 -11.15 6.851h9.5a12.5 12.5 0 0 0 11.15-6.851l15.529-30.649h7.57a12.5 12.5 0 1 0 0-25z" fill="#f8d323"/><path d="m155.819 127.171h-114.11a23.7 23.7 0 0 0 -23.7 23.7v15.3h23.333v69.577h85.333v-69.577h29.143z" fill="#63bce7"/><path d="m117.175 166.171h9.5v69.577h-9.5z" fill="#63e2e7"/><path d="m146.319 127.171h9.5v39h-9.5z" fill="#63e2e7"/><path d="m41.342 166.171h9.5v69.577h-9.5z" fill="#6377e7"/><path d="m32.394 136.46a23.7 23.7 0 0 1 18.815-9.289h-9.5a23.7 23.7 0 0 0 -23.7 23.7v15.3h9.5v-15.3a23.7 23.7 0 0 1 4.885-14.411z" fill="#6377e7"/><circle cx="115.009" cy="79.412" fill="#f8af23" r="8.375"/><circle cx="53.009" cy="79.412" fill="#f87023" r="8.375"/><path d="m73.342 94.838h21.333a0 0 0 0 1 0 0v37.417a10.667 10.667 0 0 1 -10.667 10.667 10.667 10.667 0 0 1 -10.667-10.667v-37.417a0 0 0 0 1 .001 0z" fill="#f8af23"/><path d="m73.342 94.838v37.417a10.664 10.664 0 0 0 7.75 10.253v-47.67z" fill="#f87023"/><rect fill="#f8af23" height="80.117" rx="31" width="62" x="53.009" y="36.281"/><path d="m62.509 85.4v-18.119a31.007 31.007 0 0 1 26.25-30.638 31.232 31.232 0 0 0 -4.75-.362 31 31 0 0 0 -31 31v18.119a31 31 0 0 0 31 31 31.232 31.232 0 0 0 4.75-.362 31.007 31.007 0 0 1 -26.25-30.638z" fill="#f87023"/><path d="m109.509 67.158 2.25 12.254h3.25v-21.241h-5.5z" fill="#9e9e9e"/><path d="m53.009 79.412h3.75l3.088-14.239a3.134 3.134 0 0 1 3.924-2.792l28.113 7.419c5.824 1.825 12.82-.753 17.874-4.174l7.144-4.835a11.056 11.056 0 0 0 3.405-14.636l-1.32-2.313a28.587 28.587 0 0 0 -24.828-14.421h-24.859a15.468 15.468 0 0 0 -12.55 6.426l-3.745 5.2-1.191 1.287a17.688 17.688 0 0 0 -4.143 16.439z" fill="#9e9e9e"/><path d="m61.318 42.333 1.191-1.287 3.745-5.2a15.468 15.468 0 0 1 12.546-6.425h-9.5a15.468 15.468 0 0 0 -12.55 6.427l-3.745 5.2-1.191 1.287a17.688 17.688 0 0 0 -4.143 16.439l5.334 20.64h3.75l2.624-12.1-2.207-8.542a17.688 17.688 0 0 1 4.146-16.439z" fill="#707070"/><path d="m73.342 122.272 10.667 20.649-9.334 8.851-9.833-24.601z" fill="#f46275"/><path d="m94.675 122.272-10.666 20.649 9.333 8.851 9.833-24.601z" fill="#f46275"/><circle cx="74.425" cy="82.898" fill="#3f3679" r="3.486"/><circle cx="97.078" cy="82.898" fill="#3f3679" r="3.486"/><rect fill="#9e9e9e" height="25.182" rx="4.919" width="73.851" x="152.112" y="46.49"/><rect fill="#9e9e9e" height="25.182" rx="4.919" width="73.851" x="152.112" y="71.673"/><rect fill="#9e9e9e" height="25.182" rx="4.919" width="73.851" x="152.112" y="21.308"/><path d="m221.044 21.308h-9.5a4.919 4.919 0 0 1 4.919 4.919v15.345a4.919 4.919 0 0 1 -4.919 4.919h9.5a4.919 4.919 0 0 0 4.919-4.919v-15.345a4.919 4.919 0 0 0 -4.919-4.919z" fill="#cecece"/><path d="m221.044 46.49h-9.5a4.919 4.919 0 0 1 4.919 4.919v15.345a4.919 4.919 0 0 1 -4.919 4.919h9.5a4.919 4.919 0 0 0 4.919-4.919v-15.345a4.919 4.919 0 0 0 -4.919-4.919z" fill="#cecece"/><path d="m221.044 71.673h-9.5a4.919 4.919 0 0 1 4.919 4.919v15.344a4.919 4.919 0 0 1 -4.919 4.919h9.5a4.919 4.919 0 0 0 4.919-4.919v-15.345a4.919 4.919 0 0 0 -4.919-4.918z" fill="#cecece"/><path d="m104.305 130.347h9.1a0 0 0 0 1 0 0v42.071a4 4 0 0 1 -4 4h-1.1a4 4 0 0 1 -4-4v-42.071a0 0 0 0 1 0 0z" fill="#9e9e9e" transform="matrix(.663 .748 -.748 .663 151.398 -29.827)"/><path d="m123.36 152.166-11.56-13.038a21.47 21.47 0 0 1 1.82-30.308l19.944-17.685 4.386-7.216 43.35 48.891-7.689 3.491-19.944 17.685a21.47 21.47 0 0 1 -30.307-1.82z" fill="#9e9e9e"/><path d="m111.8 139.128 11.561 13.038a21.477 21.477 0 0 0 25.913 4.834l-39.174-44.178a21.477 21.477 0 0 0 1.7 26.306z" fill="#f46275"/><path d="m32.913 214.823a12.5 12.5 0 0 1 -6.532-23.167l57.7-35.281a12.5 12.5 0 1 1 13.045 21.325l-57.7 35.281a12.445 12.445 0 0 1 -6.513 1.842z" fill="#f8af23"/><path d="m230.924 92.333 6.492 3.551a1.106 1.106 0 0 1 0 1.941l-6.492 3.551a1.106 1.106 0 0 0 -.44.44l-3.551 6.492a1.106 1.106 0 0 1 -1.941 0l-3.551-6.492a1.106 1.106 0 0 0 -.44-.44l-6.492-3.551a1.106 1.106 0 0 1 0-1.941l6.491-3.551a1.106 1.106 0 0 0 .44-.44l3.551-6.492a1.106 1.106 0 0 1 1.941 0l3.551 6.492a1.106 1.106 0 0 0 .441.44z" fill="#63bce7"/><path d="m157.073 16.787 6.492 3.551a1.106 1.106 0 0 1 0 1.941l-6.492 3.551a1.106 1.106 0 0 0 -.44.44l-3.551 6.492a1.106 1.106 0 0 1 -1.941 0l-3.551-6.492a1.106 1.106 0 0 0 -.44-.44l-6.492-3.551a1.106 1.106 0 0 1 0-1.941l6.492-3.551a1.106 1.106 0 0 0 .44-.44l3.551-6.492a1.106 1.106 0 0 1 1.941 0l3.551 6.492a1.106 1.106 0 0 0 .44.44z" fill="#63bce7"/><path d="m20.4 166.171v36.15a12.49 12.49 0 0 0 17.248 11.559 12.5 12.5 0 0 1 -7.748-11.559v-36.15z" fill="#f87023"/><rect fill="#f8af23" height="7.043" rx="1.43" width="7.043" x="210.994" y="29.816"/><path d="m160.276 29.816h39.168v7.043h-39.168z" fill="#f8af23"/><rect fill="#f8af23" height="7.043" rx="1.43" width="7.043" x="210.994" y="55.56"/><path d="m160.276 55.56h39.168v7.043h-39.168z" fill="#f8af23"/><rect fill="#f8af23" height="7.043" rx="1.43" width="7.043" x="210.994" y="80.397"/><path d="m160.276 80.397h39.168v7.043h-39.168z" fill="#f8af23"/><g fill="#3f3679"><path d="m27.323 245.221h-18a1.5 1.5 0 0 0 0 3h18a1.5 1.5 0 1 0 0-3z"/><path d="m246.68 245.221h-18a1.5 1.5 0 0 0 0 3h18a1.5 1.5 0 0 0 0-3z"/><path d="m218.479 245.221h-180.958a1.5 1.5 0 0 0 0 3h180.958a1.5 1.5 0 0 0 0-3z"/><path d="m9.32 237.248h237.36a1.5 1.5 0 0 0 0-3h-118.5v-66.577h27.644a1.5 1.5 0 0 0 1.5-1.5v-5.316h10.5a13.933 13.933 0 0 0 12.488-7.673l15.113-29.827h6.648a13.985 13.985 0 0 0 8.632-25h2.236a2.584 2.584 0 0 0 .857.787l6.393 3.5 3.494 6.39a2.6 2.6 0 0 0 2.285 1.356 2.606 2.606 0 0 0 2.287-1.355l3.5-6.391 6.391-3.5a2.606 2.606 0 0 0 0-4.573l-6.391-3.5-3.5-6.392a2.58 2.58 0 0 0 -.786-.856v-7.23a6.405 6.405 0 0 0 -2.3-4.919 6.406 6.406 0 0 0 2.3-4.919v-15.344a6.406 6.406 0 0 0 -2.3-4.919 6.405 6.405 0 0 0 2.3-4.918v-15.345a6.426 6.426 0 0 0 -6.419-6.419h-55.9a2.584 2.584 0 0 0 -.856-.787l-6.393-3.5-3.503-6.385a2.6 2.6 0 0 0 -2.285-1.357 2.607 2.607 0 0 0 -2.287 1.356l-3.5 6.391-6.391 3.5a2.606 2.606 0 0 0 0 4.573l6.391 3.5 3.5 6.392a2.581 2.581 0 0 0 .786.856v7.234a6.405 6.405 0 0 0 2.3 4.918 6.406 6.406 0 0 0 -2.3 4.919v15.336a6.406 6.406 0 0 0 2.3 4.919 6.405 6.405 0 0 0 -2.3 4.919v15.344a6.426 6.426 0 0 0 6.419 6.419h21.118a14.011 14.011 0 0 0 -3.822 4.673l-6.338 12.507-28.92-32.611a1.5 1.5 0 0 0 -2.4.216l-4.271 7.023-19.776 17.537a22.932 22.932 0 0 0 -7.705 17.974h-1.343l-7.4-4.266v-5.879a32.576 32.576 0 0 0 20.104-26.329 9.866 9.866 0 0 0 .229-19.538v-6.745c0-.017 0-.032 0-.049l1.238-.838a12.613 12.613 0 0 0 3.867-16.622l-1.32-2.313a30.148 30.148 0 0 0 -26.13-15.173h-24.864a17.008 17.008 0 0 0 -13.767 7.049l-3.687 5.129-1.128 1.219a19.108 19.108 0 0 0 -4.5 17.833l2.897 11.188a9.866 9.866 0 0 0 2.623 18.855 32.576 32.576 0 0 0 20.1 26.331v5.879l-7.4 4.266h-22.729a25.2 25.2 0 0 0 -25.2 25.2v15.3a1.5 1.5 0 0 0 1.5 1.5h.891v34.649a13.973 13.973 0 0 0 20.94 12.139v19.788h-30.52a1.5 1.5 0 0 0 0 3zm219.846-144.64a2.592 2.592 0 0 0 1.037 1.041l5.86 3.206-5.861 3.206a2.6 2.6 0 0 0 -1.035 1.036l-3.205 5.861-3.206-5.862a2.6 2.6 0 0 0 -1.036-1.035l-5.86-3.206 5.86-3.206a2.611 2.611 0 0 0 1.037-1.036l3.205-5.861zm-80.261-67.059a2.6 2.6 0 0 0 -1.035-1.036l-5.86-3.206 5.861-3.206a2.608 2.608 0 0 0 1.035-1.036l3.205-5.861 3.206 5.861a2.6 2.6 0 0 0 1.036 1.035l5.86 3.206-5.86 3.206a2.611 2.611 0 0 0 -1.037 1.036l-3.205 5.861zm4.706 16.022v-7.232a2.582 2.582 0 0 0 .787-.857l3.5-6.391 6.392-3.5a2.583 2.583 0 0 0 .857-.787h55.9a3.423 3.423 0 0 1 3.419 3.419v15.349a3.423 3.423 0 0 1 -3.419 3.418h-64.017a3.423 3.423 0 0 1 -3.419-3.418zm0 25.182v-15.344a3.423 3.423 0 0 1 3.419-3.419h64.014a3.423 3.423 0 0 1 3.419 3.419v15.345a3.423 3.423 0 0 1 -3.419 3.419h-64.014a3.423 3.423 0 0 1 -3.419-3.419zm3.419 28.6a3.423 3.423 0 0 1 -3.419-3.419v-15.343a3.423 3.423 0 0 1 3.419-3.418h64.014a3.423 3.423 0 0 1 3.419 3.418v7.233a2.582 2.582 0 0 0 -.787.857l-3.5 6.391-6.392 3.5a2.583 2.583 0 0 0 -.857.787h-55.9zm19.97 9.03a10.948 10.948 0 0 1 9.813-6.028h15.25a11 11 0 0 1 0 22h-7.57a1.5 1.5 0 0 0 -1.338.822l-15.529 30.649a10.948 10.948 0 0 1 -9.812 6.028h-10.5v-5.1l17.12-15.181 7.483-3.4a1.5 1.5 0 0 0 .5-2.361l-12.3-13.866zm-62.388 5.559 19.944-17.685a1.512 1.512 0 0 0 .287-.343l3.33-5.479 7.634 8.609-14.4 12.766a1.5 1.5 0 0 0 1.99 2.245l14.4-12.766 5.808 6.55-14.4 12.766a1.5 1.5 0 0 0 1.99 2.245l14.4-12.766 5.808 6.55-14.4 12.765a1.5 1.5 0 0 0 1.99 2.245l14.4-12.766 5.808 6.55-14.391 12.772a1.5 1.5 0 1 0 1.99 2.244l14.4-12.766 7.635 8.61-5.839 2.651a1.507 1.507 0 0 0 -.375.243l-19.944 17.685a20.189 20.189 0 0 1 -3.076 2.243l-37.572-42.371a19.963 19.963 0 0 1 2.585-2.797zm-4.275 5.413 36.463 41.113a19.925 19.925 0 0 1 -22.314-5.3l-11.561-13.038a19.986 19.986 0 0 1 -2.586-22.775zm-7.79 44.382a13.93 13.93 0 0 0 -2.287-2.812l14.171-12.565 4.047 4.564-14.8 13.127a13.986 13.986 0 0 0 -1.128-2.314zm-7.263-35.381 6.013 3.466-8.53 21.34-6.911-6.553zm26.6-44.944a6.884 6.884 0 0 1 -5.393 6.71c.005-.242.018-.481.018-.724v-12.689a6.9 6.9 0 0 1 5.375 6.703zm-8.375-12.131v10.631h-.5l-2-10.89v-.434l2.5-1.692zm-60.59-23.929 1.19-1.287a1.387 1.387 0 0 0 .116-.142l3.745-5.2a14 14 0 0 1 11.333-5.8h24.856a27.142 27.142 0 0 1 23.524 13.66l1.317 2.312a9.6 9.6 0 0 1 -2.943 12.65l-7.144 4.835c-5.806 3.929-12.007 5.418-16.65 3.966l-28.109-7.415a4.634 4.634 0 0 0 -5.793 4.015l-2.812 12.966h-1.378l-5.044-19.512a16.122 16.122 0 0 1 3.792-15.048zm-6.785 36.06a6.836 6.836 0 0 1 3.744-6.12l1.631 6.308v5.8c0 .242.013.481.018.721a6.89 6.89 0 0 1 -5.393-6.709zm8.375 5.988v-4.488h2.25a1.5 1.5 0 0 0 1.466-1.182l3.087-14.24a1.57 1.57 0 0 0 .03-.2 1.634 1.634 0 0 1 2.046-1.456l28.047 7.4c4.784 1.5 10.9.418 16.766-2.882l2.082 11.337a1.5 1.5 0 0 0 1.476 1.229h1.75v4.482a29.5 29.5 0 0 1 -59 0zm29.5 32.5a32.388 32.388 0 0 0 9.166-1.325v5.334l-9.166 17.746-9.167-17.746v-5.334a32.388 32.388 0 0 0 9.167 1.325zm-11.279 6.455 9.429 18.253-6.912 6.553-8.53-21.34zm-53.221 26.517a22.2 22.2 0 0 1 22.2-22.2h22.117l9.456 23.657a1.5 1.5 0 0 0 2.425.532l8.3-7.871 8.3 7.871a1.5 1.5 0 0 0 2.425-.532l9.456-23.657h1.048a22.8 22.8 0 0 0 5.438 11.452l1.767 1.992-14.604 12.95a14.008 14.008 0 0 0 -14.537.034l-40.458 24.734v-13.663a1.5 1.5 0 0 0 -1.5-1.5h-21.833zm19.124 60.828a10.982 10.982 0 0 1 -16.733-9.379v-34.65h17.94v14l-6.707 4.1a1.5 1.5 0 0 0 1.564 2.56l50.168-30.674a11 11 0 0 1 11.477 18.77zm4.209.957 55.066-33.668a14.009 14.009 0 0 0 6.58-13.642l15.984-14.173 1.766 1.992a22.819 22.819 0 0 0 15.81 7.689q.706.042 1.407.042a22.784 22.784 0 0 0 14.864-5.505v9.284h-27.644a1.5 1.5 0 0 0 -1.5 1.5v68.076h-82.333z"/><path d="m86.193 98.855a1.5 1.5 0 0 0 1.5-1.5v-8.125a1.5 1.5 0 1 0 -3 0v8.125a1.5 1.5 0 0 0 1.5 1.5z"/><path d="m81.884 75.188a1.5 1.5 0 0 0 -1.5-1.5h-11.917a1.5 1.5 0 0 0 0 3h11.917a1.5 1.5 0 0 0 1.5-1.5z"/><path d="m91.119 76.688h11.917a1.5 1.5 0 0 0 0-3h-11.917a1.5 1.5 0 0 0 0 3z"/><path d="m94.644 102.022a1.5 1.5 0 0 0 -2.687-1.335 6.424 6.424 0 0 1 -11.524 0 1.5 1.5 0 0 0 -2.687 1.334 9.425 9.425 0 0 0 16.9 0z"/><path d="m216.607 28.315h-4.184a2.933 2.933 0 0 0 -2.93 2.93v4.184a2.933 2.933 0 0 0 2.93 2.93h4.184a2.933 2.933 0 0 0 2.93-2.93v-4.184a2.933 2.933 0 0 0 -2.93-2.93zm-.07 7.044-4.043.069-.07-4.114 4.113-.07z"/><path d="m199.444 28.315h-39.168a1.5 1.5 0 0 0 -1.5 1.5v7.043a1.5 1.5 0 0 0 1.5 1.5h39.168a1.5 1.5 0 0 0 1.5-1.5v-7.043a1.5 1.5 0 0 0 -1.5-1.5zm-1.5 7.043h-36.168v-4.043h36.168z"/><path d="m216.607 54.06h-4.184a2.933 2.933 0 0 0 -2.93 2.93v4.184a2.933 2.933 0 0 0 2.93 2.929h4.184a2.933 2.933 0 0 0 2.93-2.929v-4.184a2.933 2.933 0 0 0 -2.93-2.93zm-.07 7.044-4.043.07-.07-4.114 4.113-.07z"/><path d="m199.444 54.06h-39.168a1.5 1.5 0 0 0 -1.5 1.5v7.04a1.5 1.5 0 0 0 1.5 1.5h39.168a1.5 1.5 0 0 0 1.5-1.5v-7.04a1.5 1.5 0 0 0 -1.5-1.5zm-1.5 7.043h-36.168v-4.043h36.168z"/><path d="m212.424 88.94h4.184a2.933 2.933 0 0 0 2.93-2.93v-4.183a2.933 2.933 0 0 0 -2.93-2.929h-4.184a2.933 2.933 0 0 0 -2.93 2.929v4.184a2.933 2.933 0 0 0 2.93 2.929zm4.113-7.114v4.115l-4.043.069-.07-4.113z"/><path d="m199.444 78.9h-39.168a1.5 1.5 0 0 0 -1.5 1.5v7.04a1.5 1.5 0 0 0 1.5 1.5h39.168a1.5 1.5 0 0 0 1.5-1.5v-7.04a1.5 1.5 0 0 0 -1.5-1.5zm-1.5 7.043h-36.168v-4.043h36.168z"/></g></svg>