<svg height="512" viewBox="0 0 512 512" width="512" xmlns="http://www.w3.org/2000/svg"><g id="Flat"><path d="m48 184h40a24 24 0 0 1 24 24v176a24 24 0 0 1 -24 24h-40a0 0 0 0 1 0 0v-224a0 0 0 0 1 0 0z" fill="#abbac2" transform="matrix(-1 0 0 -1 160 592)"/><path d="m72 408h312.747a63.253 63.253 0 0 0 63.253-63.253v-264.747a24 24 0 0 0 -24-24h-304a24 24 0 0 0 -24 24v304a24 24 0 0 1 -24 24z" fill="#ccdce5"/><path d="m424 56h-304a24 24 0 0 0 -24 24v40h352v-40a24 24 0 0 0 -24-24z" fill="#0093ba"/><path d="m120 80h16v16h-16z" fill="#ef5249"/><path d="m152 80h16v16h-16z" fill="#ffc119"/><path d="m184 80h16v16h-16z" fill="#88bf40"/><path d="m128 432h168v16h-168z" fill="#ccdce5"/><path d="m312 432h16v16h-16z" fill="#ccdce5"/><path d="m248 216a56 56 0 0 0 -73.684-53.133l17.684 53.133 39.6 39.6a55.825 55.825 0 0 0 16.4-39.6z" fill="#ffc119"/><path d="m174.316 162.867a56 56 0 0 0 -7.359 103.219l25.043-50.086z" fill="#88bf40"/><path d="m166.957 266.086a55.993 55.993 0 0 0 64.643-10.486l-39.6-39.6z" fill="#ef5249"/><path d="m220.24 206.784-8.48-13.568 64-40a7.994 7.994 0 0 1 4.24-1.216h104v16h-101.706z" fill="#0093ba"/><path d="m400 152h16v16h-16z" fill="#0093ba"/><g fill="#abbac2"><path d="m304 184h112v16h-112z"/><path d="m152 304h16v16h-16z"/><path d="m184 304h64v16h-64z"/><path d="m136 336h96v16h-96z"/></g><path d="m418.077 377.245 53.26 84.194a16 16 0 0 1 -4.969 22.072 16 16 0 0 1 -22.069-4.968l-51.689-81.711z" fill="#a3783b"/><circle cx="368" cy="328.011" fill="#0093ba" r="88"/><circle cx="368" cy="328" fill="#7ecce6" r="56"/><circle cx="368" cy="328" fill="#a1dbe8" r="28"/><ellipse cx="385.5" cy="307" fill="#e9f0f1" rx="7.885" ry="15.77" transform="matrix(.707 -.707 .707 .707 -104.171 362.508)"/></g></svg>